<?xml version="1.0" encoding="UTF-8"?>
<svg xmlns="http://www.w3.org/2000/svg" xmlns:xlink="http://www.w3.org/1999/xlink" version="1.1" id="Capa_1" x="0px" y="0px" viewBox="0 0 486.81 181.32" style="enable-background:new 0 0 486.81 181.32;" xml:space="preserve">
<style type="text/css">
	.st0{fill:#F9A11B;}
</style>
<g>
	<path class="st0" d="M343.27,85.94c0,14.65-0.03,29.3,0.05,43.94c5.96,0.03,11.87,0.02,17.9,0.02v12.42   c-0.04,0.04-0.06,0.05-0.09,0.09c-5.8-0.02-11.61,0.18-17.4-0.05c-4.47-0.18-8.86-1.59-11.72-5.6c-1.5-2.11-2.22-4.68-2.27-7.27   c-0.24-11.7-0.28-23.4-0.38-35.09c-0.03-2.86,0-5.73,0-8.7c-0.5-0.03-0.93-0.08-1.36-0.08c-6.2,0-13.46-0.1-19.65,0.05   c-3.48,0.08-6.83,0.97-9.13,3.88c-2.34,2.98-3.66,6.46-3.69,10.23c-0.11,13.63-0.08,27.26-0.1,40.9c0,0.5,0,1,0,1.63h-13.83V73.22   h13.78v10.3c0.19,0.08,0.37,0.16,0.56,0.24c0.43-0.72,0.88-1.44,1.28-2.18c1.22-2.26,2.51-4.36,4.82-5.8   c2.3-1.43,4.76-2.23,7.36-2.29c6.22-0.14,13.51-0.04,19.91-0.04V50.96h13.98v21.8c0.11,0.11,0.17,0.17,0.28,0.28h17.61v12.62   h-17.62C343.44,85.77,343.38,85.83,343.27,85.94"></path>
	<path class="st0" d="M343.55,73.05c-0.09-0.09-0.18-0.19-0.27-0.28C343.36,72.86,343.45,72.96,343.55,73.05"></path>
	<path class="st0" d="M343.27,85.96c0.09-0.1,0.18-0.2,0.27-0.29C343.45,85.76,343.36,85.86,343.27,85.96"></path>
	<path class="st0" d="M139.29,120.11c-0.1-0.09-0.19-0.18-0.29-0.27C139.1,119.93,139.19,120.02,139.29,120.11"></path>
	<path class="st0" d="M456.93,129.53c-3.79,0-6.86,3.07-6.86,6.86c0,3.79,3.07,6.86,6.86,6.86c3.79,0,6.86-3.07,6.86-6.86   C463.78,132.6,460.71,129.53,456.93,129.53"></path>
	<path class="st0" d="M91.41,46.15l-22.59,0.02v0.08l-34.76,96.28h14.88l10.24-30.81h41.28l6.55,19.92l3.82,10.79h15.56L91.41,46.15   z M63.54,98.58l15.62-45.95h1.4l15.56,45.95H63.54z"></path>
	<path class="st0" d="M441.01,130.68h-9.26v-27.96c0-19.69-11.65-31.72-31.17-31.72c-16.65,0-28.03,9.6-30.44,24.72l13.53,0.24   c1.56-8.65,7.16-12.61,16.64-12.61c11.52,0,17,4.5,17.72,16.24l-26.2,2.55c-10.73,1-23.53,5.41-23.53,20.7   c0,6.35,2.32,21.11,23.87,21.11c16.26,0,23.86-7.78,27.4-15.32v4.84c0,5.02,4.09,9.11,9.11,9.11h11.53l0.83-0.02L441.01,130.68z    M417.85,111.52c-0.66,12.54-9.88,21.9-23.68,21.9c-7.56,0-12.47-3.85-12.47-11.41c0-6.37,4.24-8.62,12.33-9.42l23.87-2.52   c0,0.06-0.01,0.11-0.01,0.17l0.04-0.01C417.93,110.68,417.88,111.1,417.85,111.52"></path>
	<g>
		<path class="st0" d="M255.24,119.28c-4.08,7.64-11.78,12.38-20.11,12.38c-8.33,0-16.04-4.74-20.11-12.38l-0.15-0.28l-12.42,3.11    l0.19,0.44c5.75,13.18,18.5,21.69,32.49,21.69c13.99,0,26.75-8.51,32.49-21.69l0.19-0.44l-12.42-3.11L255.24,119.28z"></path>
		<path class="st0" d="M235.13,70.94c-19.64,0-35.62,16.44-35.62,36.65c0,0.87,0.04,1.78,0.13,2.87l0.03,0.37h70.92l0.03-0.37    c0.09-1.08,0.13-1.99,0.13-2.87C270.75,87.38,254.77,70.94,235.13,70.94 M235.13,83.52c9.75,0,18.48,6.48,21.73,16.13l0.06,0.18    h-43.57l0.06-0.18C216.64,90,225.37,83.52,235.13,83.52"></path>
	</g>
	<g>
		<path class="st0" d="M145.31,120.09c0.79,8.83,7.42,12.05,15.5,12.05c5.7,0,15.63-1.2,15.24-9.1c-0.4-8.03-11.39-8.97-22.39-11.51    c-11.13-2.41-21.99-6.42-21.99-20.48c0-15.12,16.16-19.81,28.62-19.81c14.04,0,26.76,5.89,28.62,21.28h-15.77    c-1.33-7.23-7.29-9.24-13.91-9.24c-4.37,0-12.46,1.07-12.46,7.09c0,7.49,11.13,8.57,22.26,11.11c11,2.54,22.13,6.56,22.13,20.21    c0,16.46-16.43,22.49-30.61,22.49c-17.23,0-30.08-7.76-30.34-24.09H145.31z"></path>
	</g>
</g>
</svg>
